<?xml version="1.0" encoding="UTF-8"?>
<!DOCTYPE svg PUBLIC "-//W3C//DTD SVG 1.1//EN" "http://www.w3.org/Graphics/SVG/1.1/DTD/svg11.dtd">
<!-- Creator: CorelDRAW 2017 -->
<svg xmlns="http://www.w3.org/2000/svg" xml:space="preserve" width="50.4905mm" height="16.2527mm" version="1.1" style="shape-rendering:geometricPrecision; text-rendering:geometricPrecision; image-rendering:optimizeQuality; fill-rule:evenodd; clip-rule:evenodd"
viewBox="0 0 4900.33 1577.4"
 xmlns:xlink="http://www.w3.org/1999/xlink">
 <defs>
  <style type="text/css">
   <![CDATA[
    .fil1 {fill:#FF1B02}
    .fil2 {fill:#FFE4D8}
    .fil3 {fill:white}
    .fil0 {fill:white}
   ]]>
  </style>
 </defs>
 <g id="Warstwa_x0020_1">
  <metadata id="CorelCorpID_0Corel-Layer"/>
  <path class="fil0" d="M2420.33 633.7c-46.38,-223.17 174.61,-280.39 212.8,-105.86 46.38,226.03 -177.34,271.81 -212.8,105.86zm19.1 -326.17c-308.29,88.7 -231.9,643.76 169.16,546.49 324.66,-80.11 231.9,-660.93 -169.16,-546.49z"/>
  <path class="fil0" d="M4150.05 550.73c49.11,-91.56 122.77,-154.5 169.16,-246.06l-163.69 2.86c-38.2,54.36 -122.77,183.11 -169.16,217.45l-5.45 -217.45 -158.25 0 2.74 546.49 158.24 -5.73c2.73,-108.72 -5.45,-108.72 32.74,-188.84 46.38,25.76 100.95,140.21 125.5,191.7l182.79 2.86c-35.46,-105.87 -128.23,-200.28 -174.61,-303.29z"/>
  <path class="fil0" d="M3601.68 702.36c-32.75,54.37 -87.31,54.37 -141.87,17.17 -60.02,-40.05 -81.85,-34.33 -169.16,-22.89 -2.73,197.42 321.94,206.01 422.89,103 60.02,-54.36 70.94,-180.26 -8.18,-240.35 -84.58,-62.94 -218.27,-20.02 -245.55,-105.86 35.47,-57.22 79.12,-45.78 128.23,-11.44 38.2,28.61 -13.64,22.89 68.21,28.61 32.74,2.85 62.75,-2.86 92.76,-8.59 -21.83,-203.14 -321.94,-211.72 -417.43,-85.84 -76.39,100.14 -46.38,231.76 163.7,268.95 62.75,11.45 90.03,5.73 106.4,57.22z"/>
  <path class="fil0" d="M4622.05 462.03l51.84 165.95 -100.95 2.85c2.73,-31.47 8.18,-51.5 19.1,-85.84 0,-8.58 5.45,-31.47 10.91,-42.92 0,-2.85 5.45,-17.16 8.19,-20.02l10.91 -20.03zm-275.56 389.12l166.43 2.86 24.55 -105.87 169.15 -2.85 27.28 105.86 166.43 2.86 -171.88 -543.62 -201.89 -5.73 -180.07 546.49z"/>
  <path class="fil0" d="M1915.59 585.06l0 -157.36c62.76,0 120.05,-2.86 125.5,68.67 8.18,82.97 -51.84,85.84 -125.5,88.7zm-163.69 268.95l163.69 -2.86 0 -145.92c95.49,-2.86 169.16,0 229.17,-54.36 49.11,-42.92 79.12,-131.62 54.56,-214.59 -49.11,-160.23 -267.37,-140.2 -441.98,-128.75l-5.45 546.49z"/>
  <polygon class="fil0" points="2867.77,854.01 3241.53,851.15 3244.27,725.26 3028.73,722.4 3020.55,304.66 2867.77,307.53 "/>
  <g id="_814538592">
   <path class="fil1" d="M396.13 848l-0.93 68.13 -74.25 0.97 -0.92 -256.95c88.16,0 180.05,-16.55 206.96,60.35 13,35.04 1.86,77.87 -21.34,100.25 -27.84,27.25 -63.11,26.28 -109.52,27.25zm154.06 -187.85l208.82 0.97 1.85 57.43 -68.68 2.92 0 195.63 -75.18 0 0 -195.63 -66.82 -0.97 0 -60.35zm488.18 182.01l65.89 0c10.21,8.76 19.49,20.44 38.99,23.36 24.13,1.95 37.12,-2.92 41.76,-23.36 -15.78,-28.22 -79.82,-18.49 -113.23,-42.82 -30.62,-21.41 -43.62,-72.02 -12.06,-109.01 47.33,-56.46 201.4,-43.8 193.05,46.72l-64.05 0c-10.21,-12.66 -4.64,-14.61 -20.41,-21.42 -40.84,-16.54 -93.75,28.23 -3.72,42.83 54.76,8.75 104.88,23.36 93.74,92.46 -14.85,91.49 -213.46,103.17 -219.95,-8.76zm-261.73 -181.04l82.6 -0.97c14.85,51.58 22.27,108.04 34.34,153.78l9.28 20.44c19.49,-36.01 23.21,-140.16 42.69,-169.35 15.78,-9.73 55.69,-4.87 77.96,-3.9 0,23.36 -62.18,215.1 -74.25,255.98l-98.38 0c-10.21,-36.99 -76.1,-235.54 -74.25,-255.98zm-467.76 -517.8c-219.95,49.63 -168.91,270.58 -168.91,478.87 0,97.33 -6.49,593.72 2.79,646.28 15.78,82.73 78.89,148.92 158.7,165.47 60.33,12.65 544.8,4.86 647.82,4.86 78.89,0 258.93,9.73 325.76,-3.89 81.67,-16.55 143.85,-80.79 160.56,-162.55 11.14,-51.58 4.64,-546.03 4.64,-641.4 0,-76.9 9.28,-259.87 -3.71,-323.14 -16.71,-83.7 -77.03,-146 -158.7,-164.49 -51.98,-10.71 -551.3,-3.89 -647.82,-3.89 -72.39,0 -263.58,-8.76 -321.12,3.89z"/>
   <path class="fil1" d="M306.1 131.64c57.54,-12.65 255.23,-3.89 328.55,-3.89 101.16,0 598.62,-7.78 656.17,7.79 78.9,20.44 142,86.62 156.85,171.3 13,71.05 3.72,245.27 3.72,328.98 0,98.31 7.42,598.58 -7.42,653.09 -22.27,79.81 -85.39,142.11 -171.7,157.67 -70.54,13.63 -245.02,3.89 -327.63,3.89 -101.16,0 -593.98,7.79 -652.45,-6.81 -80.75,-20.44 -142,-84.67 -159.64,-169.35 -11.13,-54.51 -4.64,-557.7 -4.64,-656.98 0,-210.24 -49.19,-434.1 178.19,-485.69zm-8.35 -125.55c-110.45,17.52 -188.41,73.97 -239.45,151.83 -66.82,102.2 -55.69,195.63 -55.69,337.74 0,130.42 -7.42,702.73 2.79,782.54 14.85,113.87 82.6,195.63 153.14,242.35 103.01,67.16 199.53,55.48 340.61,55.48 76.1,0 728.56,4.87 787.03,-3.89 109.52,-16.55 189.33,-82.73 235.74,-152.81 67.75,-103.17 55.69,-200.5 55.69,-337.74 0,-131.39 6.49,-701.75 -3.72,-783.51 -14.85,-111.93 -82.59,-194.66 -153.13,-241.37 -102.09,-66.19 -198.61,-55.49 -339.68,-55.49 -81.68,0 -718.35,-4.86 -783.32,4.87z"/>
   <path class="fil2" d="M308.89 143.33c57.54,-12.66 248.73,-3.89 321.12,-3.89 96.52,0 595.84,-6.81 647.82,3.89 81.67,18.49 141.99,80.79 158.7,164.49 12.99,63.27 3.71,246.25 3.71,323.14 0,95.38 6.5,589.82 -4.64,641.4 -16.7,81.76 -78.89,146 -160.56,162.55 -66.83,13.63 -246.88,3.89 -325.76,3.89 -103.02,0 -587.49,7.78 -647.82,-4.86 -79.82,-16.55 -142.92,-82.74 -158.7,-165.47 -9.28,-52.56 -2.79,-548.95 -2.79,-646.28 0,-208.29 -51.04,-429.23 168.91,-478.87zm-2.79 -11.69c-227.38,51.59 -178.19,275.45 -178.19,485.69 0,99.28 -6.49,602.48 4.64,656.98 17.63,84.68 78.89,148.91 159.64,169.35 58.47,14.61 551.29,6.81 652.45,6.81 82.6,0 257.09,9.73 327.63,-3.89 86.31,-15.57 149.43,-77.87 171.7,-157.67 14.85,-54.51 7.42,-554.78 7.42,-653.09 0,-83.71 9.28,-257.92 -3.72,-328.98 -14.85,-84.68 -77.95,-150.86 -156.85,-171.3 -57.54,-15.58 -555.01,-7.79 -656.17,-7.79 -73.32,0 -271.01,-8.75 -328.55,3.89z"/>
   <path class="fil3" d="M1038.38 842.16c6.49,111.93 205.11,100.26 219.95,8.76 11.14,-69.1 -38.98,-83.71 -93.74,-92.46 -90.03,-14.6 -37.12,-59.37 3.72,-42.83 15.77,6.81 10.2,8.76 20.41,21.42l64.05 0c8.35,-90.52 -145.72,-103.18 -193.05,-46.72 -31.55,36.99 -18.56,87.6 12.06,109.01 33.42,24.33 97.45,14.6 113.23,42.82 -4.64,20.44 -17.63,25.31 -41.76,23.36 -19.5,-2.92 -28.78,-14.6 -38.99,-23.36l-65.89 0z"/>
   <path class="fil3" d="M893.59 813.94c-12.06,-45.74 -19.49,-102.2 -34.34,-153.78l-82.6 0.97c-1.85,20.44 64.04,218.99 74.25,255.98l98.38 0c12.06,-40.88 74.25,-232.62 74.25,-255.98 -22.27,-0.97 -62.18,-5.83 -77.96,3.9 -19.49,29.19 -23.21,133.34 -42.69,169.35l-9.28 -20.44z"/>
   <path class="fil3" d="M397.98 717.58c30.63,-0.97 57.54,2.92 57.54,36.01 0.93,35.05 -27.84,38.94 -60.33,36.99l2.79 -72.99zm-1.85 130.42c46.4,-0.97 81.67,0 109.52,-27.25 23.21,-22.38 34.34,-65.21 21.34,-100.25 -26.91,-76.9 -118.79,-60.35 -206.96,-60.35l0.92 256.95 74.25 -0.97 0.93 -68.13z"/>
   <polygon class="fil3" points="550.19,720.5 617.01,721.47 617.01,917.11 692.19,917.11 692.19,721.47 760.87,718.55 759.02,661.13 550.19,660.16 "/>
   <path class="fil1" d="M395.2 790.58c32.48,1.95 61.26,-1.94 60.33,-36.99 0,-33.09 -26.91,-36.98 -57.54,-36.01l-2.79 72.99z"/>
  </g>
  <path class="fil0" d="M2431.25 1120.1c-35.47,-74.38 2.73,-57.22 -54.57,-80.11 -10.91,11.44 -19.09,5.73 -13.64,57.22 0,0 13.64,42.92 13.64,45.78 35.47,125.89 65.48,120.16 100.95,-11.44 2.73,5.72 51.84,217.44 103.67,11.44 2.74,-2.86 13.65,-54.36 13.65,-57.22 2.73,-77.26 5.45,-20.03 -13.65,-45.78 -62.75,22.89 -10.91,0 -54.56,80.11 -35.46,-62.94 8.19,-57.22 -54.56,-80.11 -21.83,22.89 -10.91,8.58 -24.55,37.19l-16.36 42.92z"/>
  <path class="fil0" d="M4540.2 1228.83c57.29,-14.31 32.74,-5.73 40.92,-82.97 57.3,42.92 30.02,74.38 114.59,80.11l-10.92 -185.98c-76.39,2.86 -16.36,20.03 -65.47,80.11 -19.1,-48.63 -30.01,-74.38 -92.76,-80.11 0,54.36 -16.36,143.06 13.65,188.84z"/>
  <path class="fil0" d="M3708.08 1183.05c-24.55,-48.64 -35.46,-97.28 46.38,-94.41 16.36,62.94 24.55,82.97 -46.38,94.41zm-27.28 42.92c196.44,20.03 160.96,-160.23 79.12,-183.11 -117.32,-34.34 -166.43,82.97 -79.12,183.11z"/>
  <path class="fil0" d="M3028.73 1220.24c109.13,17.17 19.1,-25.75 90.04,-28.61 65.47,-2.85 -10.92,40.06 98.22,31.47l-62.76 -183.11 -68.21 2.86 -57.29 177.39z"/>
  <path class="fil0" d="M3342.48 1088.63c51.85,-22.9 38.2,22.89 92.76,0 -24.55,-68.68 -117.31,-65.81 -141.86,-20.03 -46.38,77.26 43.65,80.11 87.3,103 -32.74,22.89 -5.45,8.58 -46.38,5.72 -19.1,0 -21.83,-8.58 -51.84,8.59 38.2,65.8 90.04,51.5 158.24,17.17l-5.45 -71.53c-27.28,-14.31 -24.55,-8.59 -51.84,-17.17 -24.55,-11.44 -8.18,-2.86 -27.28,-14.31l-13.65 -11.44z"/>
  <path class="fil0" d="M4714.81 1228.83c109.13,-8.59 27.28,-48.64 95.48,-37.2 70.94,11.45 -21.82,31.47 87.31,34.34 -5.45,-37.19 -21.83,-77.26 -32.74,-117.31 -54.57,-185.98 -136.42,31.47 -150.06,120.17z"/>
  <path class="fil0" d="M2259.36 1102.94c49.11,-31.47 51.84,0 73.66,-42.92 -21.83,-34.34 -79.12,-22.9 -130.97,-17.17l-5.45 180.25c76.39,8.59 98.22,14.31 136.42,-11.44 -27.28,-65.8 -13.65,-2.86 -76.39,-40.05 40.92,-34.34 24.55,-2.86 70.93,-28.61 -8.18,-28.61 10.92,-14.31 -46.37,-34.34 -2.74,0 -8.19,2.86 -10.92,-2.86 -2.73,-5.72 -8.18,-2.85 -10.91,-2.85z"/>
  <path class="fil0" d="M3533.47 1082.91c49.11,28.61 49.11,22.89 0,54.36 -16.37,-22.89 -16.37,-28.61 0,-54.36zm-54.56 145.92c87.3,-14.31 10.91,-2.86 46.38,-37.2 43.65,-42.92 120.04,-2.85 79.12,-134.47 -49.11,-20.03 -76.39,-17.17 -139.15,-17.17 -2.73,34.34 -2.73,71.53 -2.73,105.87 0,45.77 -2.73,54.36 16.37,82.97z"/>
  <path class="fil0" d="M4223.72 1180.18c-10.91,-25.75 -16.36,-51.5 0,-88.7 100.95,-14.31 -2.73,25.76 106.4,20.03 -16.36,-100.14 -114.58,-85.84 -171.87,-22.89 -51.84,117.3 139.14,226.03 171.87,60.08 -92.76,17.17 -38.19,34.34 -106.4,31.47z"/>
  <path class="fil0" d="M1951.07 1102.94c54.56,-45.78 68.2,20.02 73.65,-60.09l-130.96 -2.86 0 185.98c51.84,2.86 98.22,11.44 133.69,-14.31 -16.37,-42.92 19.09,-11.44 -60.03,-34.34 0,0 -8.18,0 -8.18,-2.85 -2.73,-2.86 -8.18,-2.86 -10.92,-2.86 30.02,-25.75 49.11,-5.73 70.94,-42.92l-30.01 -11.44c-40.93,-17.17 -21.83,8.58 -30.01,-11.45 -2.73,-2.85 -5.45,-2.85 -8.18,-2.85z"/>
  <path class="fil0" d="M4057.3 1102.94c2.73,-42.92 8.18,-5.73 43.65,-22.9 2.74,0 8.19,-2.86 10.92,-5.72l19.1 -14.31c-24.55,-20.03 32.74,-14.31 -57.3,-22.9 -16.36,0 -57.29,2.86 -73.66,2.86l0 185.98c57.3,2.86 92.76,8.58 130.97,-14.31 -24.55,-54.36 -16.37,-11.44 -76.39,-40.05 43.65,-31.47 49.11,2.86 73.65,-42.92 -2.73,0 -8.18,-2.86 -10.91,-5.73l-30.01 -11.44c-21.83,-5.73 -8.18,2.86 -30.01,-8.58z"/>
  <path class="fil0" d="M2758.63 1037.13c-84.57,8.59 -32.74,2.86 -54.56,22.9l73.66 45.77c-32.74,28.61 -65.47,68.68 -73.66,123.04 79.12,0 111.87,11.44 152.78,-17.17 -19.09,-45.78 -10.91,-25.75 -79.12,-31.47 13.65,-25.75 21.83,-37.19 40.93,-60.09 38.19,-51.5 24.55,-8.58 32.74,-80.11 -24.55,0 -70.94,-2.86 -92.76,-2.86z"/>
  <path class="fil0" d="M4428.34 1171.6c27.28,-48.64 73.66,-68.67 65.48,-131.62l-139.15 5.73c0,57.22 -5.45,22.89 21.83,37.19l32.75 14.31c2.73,-5.73 8.18,2.86 10.91,5.73 -32.74,42.92 -62.75,62.94 -70.94,120.16 54.56,5.73 111.87,14.31 152.78,-11.44 -21.83,-48.64 -21.83,-14.31 -73.66,-40.05z"/>
  <path class="fil0" d="M1825.57 1171.6c16.36,-211.72 60.02,-5.73 46.37,-131.62l-147.32 2.86c-10.92,54.36 2.73,25.75 43.65,60.09 0,160.22 -13.64,117.3 40.93,125.89l16.37 -57.22z"/>
  <path class="fil0" d="M2870.5 1171.6c16.36,28.61 -2.73,42.92 43.66,57.22 120.04,31.47 122.76,-128.75 81.85,-188.84 -98.22,40.05 -5.45,-25.75 -43.66,143.06 -35.46,-11.44 -21.83,-14.31 -46.38,-20.03 -60.02,-8.58 -19.1,0 -35.46,8.59z"/>
  <path class="fil0" d="M3907.24 1171.6c0,-51.51 -2.73,-40.05 27.28,-68.67 -2.73,-2.86 -5.45,-8.59 -8.18,-8.59 -46.38,-68.67 -19.1,-54.36 -76.39,-54.36l0 185.98c21.82,0 51.84,2.86 70.93,2.86l57.3 -17.17c-21.83,-48.64 -57.3,-22.89 -62.76,-37.19 0,-2.86 -5.45,-2.86 -8.18,-2.86z"/>
  <path class="fil0" d="M2049.28 1220.24c43.66,11.45 92.76,20.03 130.97,-8.58 -19.1,-48.64 -54.57,-22.89 -60.03,-37.19 -2.73,-2.86 -8.18,-2.86 -10.91,-2.86 -5.45,-85.84 24.55,-134.48 -57.29,-128.75l-2.74 177.39z"/>
  <path class="fil0" d="M2638.59 1034.26c-19.1,28.61 -19.1,111.59 -16.37,151.65 5.45,48.63 2.73,22.89 16.37,40.05l27.28 0c21.83,-34.34 13.64,-25.75 13.64,-97.28 0,-134.48 0,-74.39 -13.64,-94.42l-27.28 0z"/>
 </g>
</svg>
