<?xml version="1.0" encoding="UTF-8"?>
<!DOCTYPE svg PUBLIC "-//W3C//DTD SVG 1.1//EN" "http://www.w3.org/Graphics/SVG/1.1/DTD/svg11.dtd">
<!-- Creator: CorelDRAW 2017 -->
<svg xmlns="http://www.w3.org/2000/svg" xml:space="preserve" width="248.119mm" height="80.449mm" version="1.1" style="shape-rendering:geometricPrecision; text-rendering:geometricPrecision; image-rendering:optimizeQuality; fill-rule:evenodd; clip-rule:evenodd"
viewBox="0 0 7185.73 2329.87"
 xmlns:xlink="http://www.w3.org/1999/xlink">
 <defs>
  <style type="text/css">
   <![CDATA[
    .str0 {stroke:#2B2A29;stroke-width:24.52;stroke-miterlimit:22.9256}
    .fil3 {fill:none;fill-rule:nonzero}
    .fil0 {fill:#FEFEFE}
    .fil1 {fill:#2B2A29;fill-rule:nonzero}
    .fil2 {fill:#FEFEFE;fill-rule:nonzero}
   ]]>
  </style>
 </defs>
 <g id="Warstwa_x0020_1">
  <metadata id="CorelCorpID_0Corel-Layer"/>
  <path class="fil0" d="M499.71 0l1330.46 0c275.94,-0 499.71,223.77 499.71,499.7l-0 1330.46c0,275.93 -223.77,499.7 -499.7,499.7l-1330.46 0c-275.93,-0 -499.7,-223.77 -499.7,-499.71l-0 -1330.46c0,-275.93 223.77,-499.71 499.71,-499.71z"/>
  <path class="fil1" d="M474.34 1352.07l94.15 0 0 -125.81 87.35 0c76.89,0 126.58,-51.06 126.58,-123.18 0,-37.9 -13.6,-70.01 -37.66,-92.65 -23.02,-22.11 -56.49,-34.74 -102,-34.74l-168.43 0 0 376.37zm94.15 -199.5l0 -98.44 68.52 0c32.95,0 52.31,18.42 52.31,48.43 0,30 -18.83,50.01 -52.31,50.01l-68.52 0zm360.83 199.5l92.58 0 0 -297.41 109.85 0 0 -78.96 -311.22 0 0 78.96 108.8 0 0 297.41 -0 0zm366.06 0l95.72 0 122.92 -376.37 -93.62 0 -58.06 197.4c-7.85,27.9 -17.26,66.33 -17.26,66.33l-1.05 0c0,0 -8.89,-37.9 -17.26,-66.33l-58.58 -197.4 -96.25 0 123.45 376.37 -0 0zm406.86 8.95c86.31,0 153.26,-43.69 153.26,-122.65 0,-80.54 -62.77,-102.12 -132.34,-118.44 -55.97,-12.63 -84.73,-18.95 -84.73,-45.27 0,-21.05 21.45,-35.27 53.87,-35.27 34.52,0 56.49,16.32 60.15,45.27l90.49 0c-3.66,-78.96 -66.43,-115.81 -147.5,-115.81 -83.69,0 -148.55,35.27 -148.55,115.81 0,78.96 68.52,98.96 133.38,114.23 51.26,12.63 81.59,18.95 81.59,48.96 0,28.43 -29.81,39.48 -60.15,39.48 -44.46,0 -69.05,-15.79 -73.23,-53.69l-93.1 0c2.09,83.17 67.48,127.39 166.86,127.39z"/>
  <g id="_845867888">
   <path class="fil2" d="M2605.26 1298.78l198.74 0 0 -263.88 184.39 0c162.31,0 267.2,-107.1 267.2,-258.36 0,-79.49 -28.71,-146.85 -79.49,-194.32 -48.58,-46.37 -119.25,-72.87 -215.3,-72.87l-355.52 0 0 789.44 0 0zm198.74 -418.46l0 -206.47 144.63 0c69.56,0 110.41,38.64 110.41,101.58 0,62.93 -39.75,104.89 -110.41,104.89l-144.63 0zm911.9 278.24c-126.97,0 -192.11,-109.31 -192.11,-252.84 0,-143.53 65.14,-253.94 192.11,-253.94 128.08,0 191.01,110.41 191.01,253.94 0,143.54 -62.93,252.84 -191.01,252.84zm-1.1 158.99c239.59,0 390.85,-175.55 390.85,-411.83 0,-236.28 -151.27,-411.83 -390.85,-411.83 -238.49,0 -389.75,175.55 -389.75,411.83 0,236.28 151.26,411.83 389.75,411.83zm487.92 -18.77l549.85 0 0 -165.62 -354.42 0 0 -623.83 -195.43 0 0 789.44 0 0zm953.85 18.77c182.18,0 323.5,-91.64 323.5,-257.26 0,-168.93 -132.49,-214.2 -279.34,-248.43 -118.14,-26.5 -178.87,-39.75 -178.87,-94.95 0,-44.17 45.27,-73.97 113.72,-73.97 72.87,0 119.24,34.23 126.97,94.95l191.01 0c-7.73,-165.62 -140.22,-242.91 -311.36,-242.91 -176.66,0 -313.56,73.97 -313.56,242.91 0,165.62 144.64,207.57 281.55,239.59 108.2,26.5 172.24,39.75 172.24,102.68 0,59.62 -62.93,82.81 -126.97,82.81 -93.85,0 -145.74,-33.12 -154.58,-112.62l-196.53 0c4.42,174.45 142.43,267.2 352.21,267.2l-0.01 0zm423.88 -18.77l195.43 0 0 -271.61 66.25 -69.56 227.45 341.17 227.45 0 -320.19 -472.56 302.53 -316.88 -231.86 0 -271.61 285.97 0 -285.97 -195.43 0 0 789.44 0 0zm746.28 0l196.53 0 45.27 -142.43 276.03 0 46.37 142.43 205.36 0 -284.86 -789.44 -200.95 0 -283.76 789.44 -0 0zm287.07 -282.66l60.73 -191.01c13.25,-40.85 32.02,-111.52 32.02,-111.52l2.21 0c0,0 17.67,70.66 30.92,111.52l59.62 191.01 -185.49 0z"/>
   <path class="fil2" d="M2681.56 1829.75l65.24 0 0 -208.25 77.4 0 0 -55.29 -219.31 0 0 55.29 76.67 0 0 208.25zm183.54 0l201.98 0 0 -55.29 -136.74 0 0 -56.4 115.37 0 0 -50.86 -115.37 0 0 -47.18 134.53 0 0 -53.81 -199.77 0 0 263.54 0 0zm248.04 0l183.55 0 0 -55.29 -118.31 0 0 -208.25 -65.24 0 0 263.54zm224.82 0l201.98 0 0 -55.29 -136.74 0 0 -56.4 115.37 0 0 -50.86 -115.37 0 0 -47.18 134.53 0 0 -53.81 -199.77 0 0 263.54 0 0zm302.22 0l64.13 0 27.64 -126.42c4.42,-21.01 8.84,-49.02 8.84,-49.02l0.74 0c0,0 4.42,28.01 9.21,49.02l27.65 126.42 63.76 0 72.24 -263.54 -65.61 0 -26.17 109.84c-5.9,26.17 -13.27,65.98 -13.27,65.98l-0.74 0c0,0 -6.63,-36.49 -12.53,-63.4l-24.7 -112.42 -60.45 0 -24.69 113.15c-5.9,26.54 -12.9,62.66 -12.9,62.66l-0.74 0c0,0 -6.26,-39.81 -12.16,-65.24l-26.54 -110.57 -65.98 0 72.24 263.54zm309.22 0l65.24 0 0 -263.54 -65.24 0 0 263.54zm109.45 0l219.31 0 0 -55.66 -107.62 0c-8.11,0 -29.12,0.74 -29.12,0.74l0 -1.11c0,0 15.11,-16.59 21.38,-23.59l110.58 -132.69 0 -51.23 -205.3 0 0 55.29 97.31 0c5.9,0 25.06,-0.74 25.06,-0.74l0 1.11c0,0 -13.27,14.38 -17.69,19.54l-113.89 136.37 0 51.97 0 -0zm342.76 4.79c30.96,0 54.92,-9.95 69.66,-26.17 12.9,-14.37 18.8,-33.54 18.8,-57.13l0 -185.03 -65.24 0 0 183.55c0,19.17 -8.11,30.96 -27.28,30.96 -18.06,0 -28.75,-9.22 -28.75,-31.7l0 -21.75 -59.34 0 0 23.22c0,50.13 29.86,84.04 92.15,84.04zm110.93 -4.79l65.61 0 15.11 -47.55 92.14 0 15.48 47.55 68.56 0 -95.09 -263.54 -67.08 0 -94.73 263.54zm95.83 -94.35l20.27 -63.76c4.43,-13.64 10.69,-37.23 10.69,-37.23l0.74 0c0,0 5.9,23.59 10.32,37.23l19.9 63.76 -61.92 0zm358.24 100.62c60.81,0 107.99,-30.59 107.99,-85.88 0,-56.39 -44.23,-71.5 -93.25,-82.93 -39.44,-8.84 -59.71,-13.27 -59.71,-31.7 0,-14.74 15.11,-24.69 37.96,-24.69 24.32,0 39.81,11.43 42.39,31.7l63.76 0c-2.58,-55.29 -46.81,-81.09 -103.94,-81.09 -58.97,0 -104.68,24.69 -104.68,81.09 0,55.29 48.28,69.29 93.99,79.98 36.12,8.84 57.5,13.27 57.5,34.28 0,19.9 -21.01,27.64 -42.39,27.64 -31.33,0 -48.65,-11.06 -51.6,-37.6l-65.61 0c1.47,58.24 47.55,89.2 117.58,89.2l0 0zm151.11 -6.27l66.35 0 0 -88.09 61.55 0c54.18,0 89.2,-35.75 89.2,-86.25 0,-26.54 -9.58,-49.02 -26.54,-64.87 -16.22,-15.48 -39.81,-24.32 -71.87,-24.32l-118.68 0 0 263.54zm66.34 -139.69l0 -68.92 48.28 0c23.22,0 36.86,12.9 36.86,33.91 0,21.01 -13.27,35.02 -36.86,35.02l-48.28 0 0 -0zm314.02 92.89c-42.39,0 -64.13,-36.49 -64.13,-84.41 0,-47.92 21.75,-84.77 64.13,-84.77 42.75,0 63.76,36.86 63.76,84.77 0,47.92 -21.01,84.41 -63.76,84.41zm-0.37 53.08c79.98,0 130.48,-58.61 130.48,-137.48 0,-78.87 -50.5,-137.48 -130.48,-137.48 -79.61,0 -130.11,58.61 -130.11,137.48 0,78.88 50.5,137.48 130.11,137.48zm175.43 -6.27l183.55 0 0 -55.29 -118.31 0 0 -58.97 70.4 -36.86 0 -43.13 -70.4 36.86 0 -106.15 -65.24 0 0 140.43 -22.48 11.43 0 43.13 22.48 -11.43 0 79.98zm224.45 0l201.98 0 0 -55.29 -136.74 0 0 -56.4 115.37 0 0 -50.86 -115.37 0 0 -47.18 134.53 0 0 -53.81 -199.77 0 0 263.54 0 0zm361.93 5.9c37.23,0 64.13,-10.32 84.41,-29.85 18.06,-17.32 29.86,-41.28 31.7,-67.45l-65.24 0c-2.95,25.43 -22.11,43.86 -51.23,43.86 -39.07,0 -63.4,-35.01 -63.4,-83.3 0,-47.92 20.27,-83.67 63.03,-83.67 28.01,0 46.44,18.06 49.76,41.65l65.24 0c-3.32,-29.49 -16.59,-55.29 -39.44,-72.61 -18.8,-14.38 -44.6,-23.22 -75.19,-23.22 -78.5,0 -129.74,59.34 -129.74,137.85 0,78.87 52.71,136.74 130.11,136.74zm145.57 -5.9l219.31 0 0 -55.66 -107.62 0c-8.11,0 -29.12,0.74 -29.12,0.74l0 -1.11c0,0 15.11,-16.59 21.38,-23.59l110.58 -132.69 0 -51.23 -205.3 0 0 55.29 97.31 0c5.9,0 25.06,-0.74 25.06,-0.74l0 1.11c0,0 -13.27,14.38 -17.69,19.54l-113.89 136.37 0 51.97 0 -0zm263.89 0l63.77 0 0 -122.74c0,-9.21 -0.74,-43.12 -0.74,-43.12l0.74 0c0,0 14.37,28.38 18.8,35.38l77.4 130.48 65.61 0 0 -263.54 -63.77 0 0 124.95c0,9.22 0.74,40.91 0.74,40.91l-0.74 0c0,0 -14.01,-26.17 -18.06,-33.54l-78.14 -132.32 -65.61 0 0 263.54zm259.83 0l65.61 0 15.11 -47.55 92.14 0 15.48 47.55 68.56 0 -95.09 -263.54 -67.08 0 -94.73 263.54zm95.83 -94.35l20.27 -63.76c4.43,-13.64 10.69,-37.23 10.69,-37.23l0.74 0c0,0 5.9,23.59 10.32,37.23l19.9 63.76 -61.92 0z"/>
  </g>
  <path class="fil3 str0" d="M519.93 175.3l1290 0c190.3,0 344.63,154.33 344.63,344.63l0 1290c0,190.3 -154.33,344.63 -344.63,344.63l-1290.01 0.01c-190.3,-0.01 -344.63,-154.34 -344.63,-344.64l-0 -1290c0,-190.3 154.33,-344.63 344.63,-344.63z"/>
 </g>
</svg>
