<?xml version="1.0" encoding="UTF-8"?>
<!DOCTYPE svg PUBLIC "-//W3C//DTD SVG 1.1//EN" "http://www.w3.org/Graphics/SVG/1.1/DTD/svg11.dtd">
<!-- Creator: CorelDRAW 2017 -->
<svg xmlns="http://www.w3.org/2000/svg" xml:space="preserve" width="248.119mm" height="80.449mm" version="1.1" style="shape-rendering:geometricPrecision; text-rendering:geometricPrecision; image-rendering:optimizeQuality; fill-rule:evenodd; clip-rule:evenodd"
viewBox="0 0 24902.09 8074.13"
 xmlns:xlink="http://www.w3.org/1999/xlink">
 <defs>
  <style type="text/css">
   <![CDATA[
    .str0 {stroke:#FEFEFE;stroke-width:84.97;stroke-miterlimit:22.9256}
    .fil2 {fill:none}
    .fil0 {fill:#FF1B02}
    .fil1 {fill:#FEFEFE;fill-rule:nonzero}
   ]]>
  </style>
 </defs>
 <g id="Warstwa_x0020_1">
  <metadata id="CorelCorpID_0Corel-Layer"/>
  <rect class="fil0" x="-0" y="-0" width="8074.14" height="8074.14" rx="1731.72" ry="1731.72"/>
  <path class="fil1" d="M1643.82 4685.58l326.28 0 0 -435.98 302.72 0c266.45,0 438.66,-176.95 438.66,-426.87 0,-131.35 -47.12,-242.62 -130.5,-321.06 -79.77,-76.61 -195.77,-120.4 -353.47,-120.4l-583.68 0 0 1304.3zm326.28 -691.37l0 -341.13 237.46 0c114.19,0 181.27,63.85 181.27,167.83 0,103.98 -65.26,173.3 -181.27,173.3l-237.46 0zm1250.45 691.37l320.84 0 0 -1030.67 380.67 0 0 -273.63 -1078.54 0 0 273.63 377.04 0 0 1030.67zm1268.58 0l331.72 0 425.97 -1304.3 -324.46 0 -201.21 684.08c-27.2,96.68 -59.82,229.85 -59.82,229.85l-3.63 0c0,0 -30.81,-131.35 -59.82,-229.85l-203.02 -684.08 -333.54 0 427.8 1304.3zm1409.96 31.01c299.09,0 531.11,-151.41 531.11,-425.04 0,-279.1 -217.52,-353.89 -458.61,-410.45 -193.95,-43.78 -293.64,-65.67 -293.64,-156.88 0,-72.96 74.32,-122.22 186.7,-122.22 119.63,0 195.77,56.55 208.45,156.88l313.6 0c-12.7,-273.62 -230.21,-401.32 -511.17,-401.32 -290.03,0 -514.79,122.22 -514.79,401.32 0,273.63 237.46,342.95 462.23,395.85 177.63,43.78 282.76,65.67 282.76,169.65 0,98.51 -103.31,136.82 -208.44,136.82 -154.09,0 -239.28,-54.73 -253.79,-186.07l-322.65 0c7.25,288.22 233.84,441.46 578.24,441.46z"/>
  <g id="_845867888">
   <path class="fil1" d="M9028.51 4500.88l688.73 0 0 -914.48 638.98 0c562.47,0 925.96,-371.15 925.96,-895.35 0,-275.49 -99.48,-508.89 -275.49,-673.43 -168.36,-160.7 -413.25,-252.53 -746.13,-252.53l-1232.06 0 0 2735.79zm688.73 -1450.16l0 -715.52 501.23 0c241.06,0 382.64,133.92 382.64,352.02 0,218.1 -137.75,363.5 -382.64,363.5l-501.23 0zm3160.17 964.22c-440.02,0 -665.77,-378.8 -665.77,-876.22 0,-497.41 225.75,-880.04 665.77,-880.04 443.85,0 661.95,382.63 661.95,880.04 0,497.42 -218.1,876.22 -661.95,876.22zm-3.82 550.98c830.3,0 1354.5,-608.38 1354.5,-1427.21 0,-818.82 -524.21,-1427.2 -1354.5,-1427.2 -826.48,0 -1350.68,608.37 -1350.68,1427.2 0,818.82 524.2,1427.21 1350.68,1427.21zm1690.88 -65.05l1905.49 0 0 -573.94 -1228.24 0 0 -2161.86 -677.25 0 0 2735.79zm3305.57 65.05c631.34,0 1121.1,-317.58 1121.1,-891.52 0,-585.43 -459.15,-742.31 -968.04,-860.92 -409.41,-91.83 -619.85,-137.75 -619.85,-329.06 0,-153.05 156.87,-256.36 394.11,-256.36 252.53,0 413.24,118.61 440.01,329.06l661.96 0c-26.79,-573.95 -485.94,-841.79 -1079.02,-841.79 -612.21,0 -1086.66,256.36 -1086.66,841.79 0,573.94 501.24,719.33 975.7,830.3 374.98,91.83 596.9,137.75 596.9,355.85 0,206.62 -218.1,286.97 -440.02,286.97 -325.24,0 -505.07,-114.79 -535.68,-390.28l-681.08 0c15.31,604.56 493.59,925.96 1220.58,925.96zm1468.96 -65.05l677.25 0 0 -941.27 229.57 -241.05 788.22 1182.32 788.21 0 -1109.63 -1637.65 1048.41 -1098.15 -803.52 0 -941.27 991.01 0 -991.01 -677.25 0 0 2735.79zm2586.23 0l681.08 0 156.88 -493.59 956.57 0 160.7 493.59 711.69 0 -987.18 -2735.79 -696.38 0 -983.35 2735.79zm994.83 -979.53l210.44 -661.95c45.92,-141.57 110.96,-386.46 110.96,-386.46l7.66 0c0,0 61.22,244.89 107.14,386.46l206.62 661.95 -642.82 0z"/>
   <path class="fil1" d="M9292.91 6340.96l226.08 0 0 -721.68 268.24 0 0 -191.59 -760 0 0 191.59 265.68 0 0 721.68zm636.04 0l699.97 0 0 -191.59 -473.89 0 0 -195.44 399.8 0 0 -176.27 -399.8 0 0 -163.49 466.22 0 0 -186.49 -692.31 0 0 913.28zm859.58 0l636.1 0 0 -191.59 -410.01 0 0 -721.68 -226.09 0 0 913.28zm779.11 0l699.97 0 0 -191.59 -473.89 0 0 -195.44 399.8 0 0 -176.27 -399.8 0 0 -163.49 466.22 0 0 -186.49 -692.31 0 0 913.28zm1047.35 0l222.25 0 95.8 -438.12c15.33,-72.81 30.65,-169.89 30.65,-169.89l2.56 0c0,0 15.33,97.07 31.93,169.89l95.81 438.12 220.97 0 250.36 -913.28 -227.36 0 -90.69 380.64c-20.43,90.69 -45.99,228.64 -45.99,228.64l-2.55 0c0,0 -22.99,-126.46 -43.43,-219.7l-85.59 -389.58 -209.48 0 -85.58 392.13c-20.43,91.97 -44.7,217.15 -44.7,217.15l-2.56 0c0,0 -21.71,-137.95 -42.14,-226.09l-91.97 -383.19 -228.64 0 250.36 913.28zm1071.61 0l226.09 0 0 -913.28 -226.09 0 0 913.28zm379.31 0l760 0 0 -192.88 -372.97 0c-28.1,0 -100.92,2.56 -100.92,2.56l0 -3.83c0,0 52.37,-57.48 74.09,-81.75l383.2 -459.83 0 -177.54 -711.47 0 0 191.59 337.21 0c20.43,0 86.85,-2.56 86.85,-2.56l0 3.83c0,0 -45.99,49.82 -61.31,67.71l-394.69 472.6 0 180.1zm1187.85 16.6c107.29,0 190.32,-34.48 241.41,-90.69 44.7,-49.81 65.14,-116.23 65.14,-197.98l0 -641.21 -226.08 0 0 636.1c0,66.42 -28.1,107.29 -94.52,107.29 -62.59,0 -99.63,-31.94 -99.63,-109.85l0 -75.36 -205.65 0 0 80.47c0,173.72 103.46,291.22 319.34,291.22zm384.42 -16.6l227.36 0 52.37 -164.78 319.33 0 53.64 164.78 237.58 0 -329.54 -913.28 -232.47 0 -328.27 913.28zm332.1 -326.99l70.24 -220.97c15.34,-47.26 37.04,-129.02 37.04,-129.02l2.56 0c0,0 20.43,81.76 35.76,129.02l68.98 220.97 -214.59 0zm1241.49 348.71c210.75,0 374.25,-106.02 374.25,-297.62 0,-195.43 -153.28,-247.8 -323.16,-287.4 -136.67,-30.65 -206.93,-45.98 -206.93,-109.85 0,-51.09 52.37,-85.58 131.57,-85.58 84.3,0 137.95,39.6 146.89,109.85l220.97 0c-8.94,-191.59 -162.22,-281.01 -360.2,-281.01 -204.37,0 -362.75,85.58 -362.75,281.01 0,191.6 167.33,240.14 325.72,277.18 125.17,30.65 199.26,45.98 199.26,118.79 0,68.97 -72.81,95.8 -146.89,95.8 -108.57,0 -168.61,-38.32 -178.83,-130.29l-227.36 0c5.11,201.82 164.78,309.12 407.47,309.12zm523.65 -21.72l229.92 0 0 -305.28 213.31 0c187.76,0 309.11,-123.9 309.11,-298.89 0,-91.97 -33.21,-169.89 -91.97,-224.81 -56.2,-53.64 -137.95,-84.3 -249.07,-84.3l-411.3 0 0 913.28zm229.92 -484.1l0 -238.85 167.33 0c80.47,0 127.73,44.7 127.73,117.51 0,72.81 -45.99,121.35 -127.73,121.35l-167.33 0zm1088.22 321.89c-146.89,0 -222.25,-126.46 -222.25,-292.51 0,-166.05 75.36,-293.78 222.25,-293.78 148.17,0 220.97,127.73 220.97,293.78 0,166.05 -72.8,292.51 -220.97,292.51zm-1.28 183.94c277.18,0 452.18,-203.1 452.18,-476.44 0,-273.34 -174.99,-476.43 -452.18,-476.43 -275.9,0 -450.89,203.1 -450.89,476.43 0,273.35 174.99,476.44 450.89,476.44zm607.95 -21.72l636.1 0 0 -191.59 -410.01 0 0 -204.37 243.96 -127.73 0 -149.45 -243.96 127.73 0 -367.86 -226.09 0 0 486.65 -77.91 39.59 0 149.45 77.91 -39.59 0 277.17zm777.84 0l699.97 0 0 -191.59 -473.89 0 0 -195.44 399.8 0 0 -176.27 -399.8 0 0 -163.49 466.22 0 0 -186.49 -692.31 0 0 913.28zm1254.27 20.43c129.02,0 222.25,-35.76 292.51,-103.45 62.59,-60.04 103.46,-143.07 109.85,-233.76l-226.09 0c-10.22,88.14 -76.64,152 -177.54,152 -135.39,0 -219.7,-121.34 -219.7,-288.67 0,-166.05 70.25,-289.96 218.42,-289.96 97.07,0 160.94,62.6 172.43,144.34l226.09 0c-11.5,-102.19 -57.48,-191.6 -136.67,-251.63 -65.15,-49.82 -154.56,-80.47 -260.57,-80.47 -272.06,0 -449.62,205.64 -449.62,477.72 0,273.34 182.66,473.88 450.89,473.88zm504.49 -20.43l760 0 0 -192.88 -372.97 0c-28.1,0 -100.92,2.56 -100.92,2.56l0 -3.83c0,0 52.37,-57.48 74.09,-81.75l383.2 -459.83 0 -177.54 -711.47 0 0 191.59 337.21 0c20.43,0 86.85,-2.56 86.85,-2.56l0 3.83c0,0 -45.99,49.82 -61.31,67.71l-394.69 472.6 0 180.1zm914.5 0l220.98 0 0 -425.35c0,-31.93 -2.56,-149.44 -2.56,-149.44l2.56 0c0,0 49.81,98.36 65.14,122.62l268.24 452.17 227.36 0 0 -913.28 -220.98 0 0 433.01c0,31.94 2.56,141.78 2.56,141.78l-2.56 0c0,0 -48.54,-90.69 -62.59,-116.24l-270.79 -458.55 -227.36 0 0 913.28zm900.46 0l227.36 0 52.37 -164.78 319.33 0 53.64 164.78 237.58 0 -329.54 -913.28 -232.47 0 -328.27 913.28zm332.1 -326.99l70.24 -220.97c15.34,-47.26 37.04,-129.02 37.04,-129.02l2.56 0c0,0 20.43,81.76 35.76,129.02l68.98 220.97 -214.59 0z"/>
  </g>
  <rect class="fil2 str0" x="607.5" y="607.5" width="6859.13" height="6859.13" rx="1194.32" ry="1194.32"/>
 </g>
</svg>
